<?xml version="1.0" encoding="UTF-8" standalone="no"?>
<!DOCTYPE svg PUBLIC "-//W3C//DTD SVG 1.1//EN"
 "http://www.w3.org/Graphics/SVG/1.1/DTD/svg11.dtd">
<!-- Generated by graphviz version 9.0.0 (20230911.1827)
 -->
<!-- Title: G Pages: 1 -->
<svg width="651pt" height="833pt"
 viewBox="0.00 0.00 651.00 833.10" xmlns="http://www.w3.org/2000/svg" xmlns:xlink="http://www.w3.org/1999/xlink">
<g id="graph0" class="graph" transform="scale(1 1) rotate(0) translate(4 829.1)">
<title>G</title><style>.edge>path:hover{stroke-width:8}</style>
<polygon fill="white" stroke="none" points="-4,4 -4,-829.1 647,-829.1 647,4 -4,4"/>
<g id="clust1" class="cluster">
<title>cluster_applications</title><style>.edge>path:hover{stroke-width:8}</style>
<polygon fill="none" stroke="black" points="8,-8 8,-817.1 635,-817.1 635,-8 8,-8"/>
<text text-anchor="middle" x="321.5" y="-14.45" font-family="Times New Roman,serif" font-size="14.00">applications</text>
</g>
<!-- applications_core_admin -->
<g id="node1" class="node">
<title>applications_core_admin</title><style>.edge>path:hover{stroke-width:8}</style>
<ellipse fill="#9f5656" stroke="black" cx="478" cy="-522.65" rx="38.49" ry="18"/>
<text text-anchor="middle" x="478" y="-519.15" font-family="Helvetica,sans-Serif" font-size="10.00" fill="#ffffff">core.admin</text>
</g>
<!-- applications_core_models -->
<g id="node4" class="node">
<title>applications_core_models</title><style>.edge>path:hover{stroke-width:8}</style>
<ellipse fill="#c82323" stroke="black" cx="421" cy="-594.65" rx="41.64" ry="18"/>
<text text-anchor="middle" x="421" y="-591.15" font-family="Helvetica,sans-Serif" font-size="10.00" fill="#ffffff">core.models</text>
</g>
<!-- applications_core_admin&#45;&gt;applications_core_models -->
<g id="edge3" class="edge">
<title>applications_core_admin&#45;&gt;applications_core_models</title><style>.edge>path:hover{stroke-width:8}</style>
<path fill="none" stroke="black" d="M464.78,-539.89C457.8,-548.46 449.09,-559.16 441.28,-568.75"/>
<polygon fill="#000000" stroke="black" points="438.7,-566.37 435.1,-576.33 444.13,-570.79 438.7,-566.37"/>
</g>
<!-- applications_core_controllers -->
<g id="node2" class="node">
<title>applications_core_controllers</title><style>.edge>path:hover{stroke-width:8}</style>
<ellipse fill="#b65353" stroke="black" cx="59" cy="-134.38" rx="43.13" ry="22.63"/>
<text text-anchor="middle" x="59" y="-136.88" font-family="Helvetica,sans-Serif" font-size="10.00" fill="#ffffff">core.</text>
<text text-anchor="middle" x="59" y="-124.88" font-family="Helvetica,sans-Serif" font-size="10.00" fill="#ffffff">controllers</text>
</g>
<!-- applications_core_controllers_companies_controller -->
<g id="node3" class="node">
<title>applications_core_controllers_companies_controller</title><style>.edge>path:hover{stroke-width:8}</style>
<ellipse fill="#a44646" stroke="black" cx="93" cy="-232.6" rx="76.54" ry="31.11"/>
<text text-anchor="middle" x="93" y="-241.1" font-family="Helvetica,sans-Serif" font-size="10.00" fill="#ffffff">core.</text>
<text text-anchor="middle" x="93" y="-229.1" font-family="Helvetica,sans-Serif" font-size="10.00" fill="#ffffff">controllers.</text>
<text text-anchor="middle" x="93" y="-217.1" font-family="Helvetica,sans-Serif" font-size="10.00" fill="#ffffff">companies_controller</text>
</g>
<!-- applications_core_serializers -->
<g id="node8" class="node">
<title>applications_core_serializers</title><style>.edge>path:hover{stroke-width:8}</style>
<ellipse fill="#c24747" stroke="black" cx="300" cy="-437.54" rx="42.6" ry="22.63"/>
<text text-anchor="middle" x="300" y="-440.04" font-family="Helvetica,sans-Serif" font-size="10.00" fill="#ffffff">core.</text>
<text text-anchor="middle" x="300" y="-428.04" font-family="Helvetica,sans-Serif" font-size="10.00" fill="#ffffff">serializers</text>
</g>
<!-- applications_core_controllers_companies_controller&#45;&gt;applications_core_serializers -->
<g id="edge11" class="edge">
<title>applications_core_controllers_companies_controller&#45;&gt;applications_core_serializers</title><style>.edge>path:hover{stroke-width:8}</style>
<path fill="none" stroke="black" d="M121.78,-261.82C161.61,-300.86 233.04,-370.89 272.29,-409.37"/>
<polygon fill="#000000" stroke="black" points="269.48,-411.52 279.07,-416.02 274.38,-406.52 269.48,-411.52"/>
</g>
<!-- applications_core_serializers_companies_serializer -->
<g id="node9" class="node">
<title>applications_core_serializers_companies_serializer</title><style>.edge>path:hover{stroke-width:8}</style>
<ellipse fill="#ac4949" stroke="black" cx="141" cy="-437.54" rx="76.01" ry="31.11"/>
<text text-anchor="middle" x="141" y="-446.04" font-family="Helvetica,sans-Serif" font-size="10.00" fill="#ffffff">core.</text>
<text text-anchor="middle" x="141" y="-434.04" font-family="Helvetica,sans-Serif" font-size="10.00" fill="#ffffff">serializers.</text>
<text text-anchor="middle" x="141" y="-422.04" font-family="Helvetica,sans-Serif" font-size="10.00" fill="#ffffff">companies_serializer</text>
</g>
<!-- applications_core_controllers_companies_controller&#45;&gt;applications_core_serializers_companies_serializer -->
<g id="edge13" class="edge">
<title>applications_core_controllers_companies_controller&#45;&gt;applications_core_serializers_companies_serializer</title><style>.edge>path:hover{stroke-width:8}</style>
<path fill="none" stroke="black" d="M100.19,-263.98C108.43,-298.83 121.99,-356.15 131.19,-395.08"/>
<polygon fill="#000000" stroke="black" points="127.79,-395.88 133.49,-404.81 134.6,-394.27 127.79,-395.88"/>
</g>
<!-- applications_core_models_companies -->
<g id="node5" class="node">
<title>applications_core_models_companies</title><style>.edge>path:hover{stroke-width:8}</style>
<ellipse fill="#c24747" stroke="black" cx="364" cy="-777.99" rx="44.72" ry="31.11"/>
<text text-anchor="middle" x="364" y="-786.49" font-family="Helvetica,sans-Serif" font-size="10.00" fill="#ffffff">core.</text>
<text text-anchor="middle" x="364" y="-774.49" font-family="Helvetica,sans-Serif" font-size="10.00" fill="#ffffff">models.</text>
<text text-anchor="middle" x="364" y="-762.49" font-family="Helvetica,sans-Serif" font-size="10.00" fill="#ffffff">companies</text>
</g>
<!-- applications_core_models&#45;&gt;applications_core_models_companies -->
<g id="edge6" class="edge">
<title>applications_core_models&#45;&gt;applications_core_models_companies</title><style>.edge>path:hover{stroke-width:8}</style>
<path fill="none" stroke="black" d="M398.41,-610.15C386.05,-619.48 371.89,-632.82 365,-648.65 353.17,-675.85 353.37,-709.46 356.29,-735.46"/>
<polygon fill="#000000" stroke="black" points="352.81,-735.87 357.59,-745.33 359.75,-734.95 352.81,-735.87"/>
</g>
<!-- applications_core_models_judgements -->
<g id="node6" class="node">
<title>applications_core_models_judgements</title><style>.edge>path:hover{stroke-width:8}</style>
<ellipse fill="#9d4343" stroke="black" cx="421" cy="-679.76" rx="46.85" ry="31.11"/>
<text text-anchor="middle" x="421" y="-688.26" font-family="Helvetica,sans-Serif" font-size="10.00" fill="#ffffff">core.</text>
<text text-anchor="middle" x="421" y="-676.26" font-family="Helvetica,sans-Serif" font-size="10.00" fill="#ffffff">models.</text>
<text text-anchor="middle" x="421" y="-664.26" font-family="Helvetica,sans-Serif" font-size="10.00" fill="#ffffff">judgements</text>
</g>
<!-- applications_core_models&#45;&gt;applications_core_models_judgements -->
<g id="edge8" class="edge">
<title>applications_core_models&#45;&gt;applications_core_models_judgements</title><style>.edge>path:hover{stroke-width:8}</style>
<path fill="none" stroke="black" d="M421,-612.87C421,-619.93 421,-628.44 421,-636.96"/>
<polygon fill="#000000" stroke="black" points="417.5,-636.94 421,-646.94 424.5,-636.94 417.5,-636.94"/>
</g>
<!-- applications_core_models_users -->
<g id="node7" class="node">
<title>applications_core_models_users</title><style>.edge>path:hover{stroke-width:8}</style>
<ellipse fill="#c24747" stroke="black" cx="479" cy="-777.99" rx="35.71" ry="31.11"/>
<text text-anchor="middle" x="479" y="-786.49" font-family="Helvetica,sans-Serif" font-size="10.00" fill="#ffffff">core.</text>
<text text-anchor="middle" x="479" y="-774.49" font-family="Helvetica,sans-Serif" font-size="10.00" fill="#ffffff">models.</text>
<text text-anchor="middle" x="479" y="-762.49" font-family="Helvetica,sans-Serif" font-size="10.00" fill="#ffffff">users</text>
</g>
<!-- applications_core_models&#45;&gt;applications_core_models_users -->
<g id="edge9" class="edge">
<title>applications_core_models&#45;&gt;applications_core_models_users</title><style>.edge>path:hover{stroke-width:8}</style>
<path fill="none" stroke="black" d="M443.54,-610.17C455.88,-619.51 470.05,-632.84 477,-648.65 488.98,-675.89 489,-709.64 486.29,-735.69"/>
<polygon fill="#000000" stroke="black" points="482.82,-735.21 485.06,-745.56 489.77,-736.07 482.82,-735.21"/>
</g>
<!-- applications_core_models_judgements&#45;&gt;applications_core_models_companies -->
<g id="edge7" class="edge">
<title>applications_core_models_judgements&#45;&gt;applications_core_models_companies</title><style>.edge>path:hover{stroke-width:8}</style>
<path fill="none" stroke="black" d="M404.21,-709.11C398.64,-718.51 392.35,-729.13 386.43,-739.12"/>
<polygon fill="#000000" stroke="black" points="383.53,-737.15 381.44,-747.54 389.55,-740.72 383.53,-737.15"/>
</g>
<!-- applications_core_models_judgements&#45;&gt;applications_core_models_users -->
<g id="edge10" class="edge">
<title>applications_core_models_judgements&#45;&gt;applications_core_models_users</title><style>.edge>path:hover{stroke-width:8}</style>
<path fill="none" stroke="black" d="M438.09,-709.11C443.96,-718.86 450.63,-729.92 456.85,-740.23"/>
<polygon fill="#000000" stroke="black" points="453.69,-741.78 461.85,-748.54 459.69,-738.17 453.69,-741.78"/>
</g>
<!-- applications_core_serializers_companies_serializer&#45;&gt;applications_core_models -->
<g id="edge4" class="edge">
<title>applications_core_serializers_companies_serializer&#45;&gt;applications_core_models</title><style>.edge>path:hover{stroke-width:8}</style>
<path fill="none" stroke="black" d="M185.37,-463.12C241.05,-493.97 335.41,-546.24 386.18,-574.36"/>
<polygon fill="#000000" stroke="black" points="384.26,-577.3 394.7,-579.08 387.65,-571.18 384.26,-577.3"/>
</g>
<!-- applications_core_tests_e2e_crud_tests_mixin -->
<g id="node10" class="node">
<title>applications_core_tests_e2e_crud_tests_mixin</title><style>.edge>path:hover{stroke-width:8}</style>
<ellipse fill="#b65353" stroke="black" cx="563" cy="-232.6" rx="63.82" ry="39.6"/>
<text text-anchor="middle" x="563" y="-247.1" font-family="Helvetica,sans-Serif" font-size="10.00" fill="#ffffff">core.</text>
<text text-anchor="middle" x="563" y="-235.1" font-family="Helvetica,sans-Serif" font-size="10.00" fill="#ffffff">tests.</text>
<text text-anchor="middle" x="563" y="-223.1" font-family="Helvetica,sans-Serif" font-size="10.00" fill="#ffffff">e2e.</text>
<text text-anchor="middle" x="563" y="-211.1" font-family="Helvetica,sans-Serif" font-size="10.00" fill="#ffffff">crud_tests_mixin</text>
</g>
<!-- applications_core_tests_e2e_test_animals -->
<g id="node11" class="node">
<title>applications_core_tests_e2e_test_animals</title><style>.edge>path:hover{stroke-width:8}</style>
<ellipse fill="#7e4444" stroke="black" cx="431" cy="-232.6" rx="50.56" ry="39.6"/>
<text text-anchor="middle" x="431" y="-247.1" font-family="Helvetica,sans-Serif" font-size="10.00" fill="#ffffff">core.</text>
<text text-anchor="middle" x="431" y="-235.1" font-family="Helvetica,sans-Serif" font-size="10.00" fill="#ffffff">tests.</text>
<text text-anchor="middle" x="431" y="-223.1" font-family="Helvetica,sans-Serif" font-size="10.00" fill="#ffffff">e2e.</text>
<text text-anchor="middle" x="431" y="-211.1" font-family="Helvetica,sans-Serif" font-size="10.00" fill="#ffffff">test_animals</text>
</g>
<!-- applications_core_tests_e2e_test_animals&#45;&gt;applications_core_models -->
<g id="edge5" class="edge">
<title>applications_core_tests_e2e_test_animals&#45;&gt;applications_core_models</title><style>.edge>path:hover{stroke-width:8}</style>
<path fill="none" stroke="black" d="M429.92,-272.48C427.89,-345.42 423.57,-501.22 421.79,-565.26"/>
<polygon fill="#000000" stroke="black" points="418.3,-564.85 421.52,-574.94 425.3,-565.04 418.3,-564.85"/>
</g>
<!-- applications_core_tests_e2e_test_animals&#45;&gt;applications_core_serializers -->
<g id="edge12" class="edge">
<title>applications_core_tests_e2e_test_animals&#45;&gt;applications_core_serializers</title><style>.edge>path:hover{stroke-width:8}</style>
<path fill="none" stroke="black" d="M408.48,-268.49C383.37,-307.4 343.16,-369.69 319.39,-406.51"/>
<polygon fill="#000000" stroke="black" points="316.74,-404.16 314.25,-414.46 322.62,-407.96 316.74,-404.16"/>
</g>
<!-- applications_core_tests_e2e_test_animals&#45;&gt;applications_core_tests_e2e_crud_tests_mixin -->
<g id="edge14" class="edge">
<title>applications_core_tests_e2e_test_animals&#45;&gt;applications_core_tests_e2e_crud_tests_mixin</title><style>.edge>path:hover{stroke-width:8}</style>
<path fill="none" stroke="black" d="M482.05,-232.6C483.88,-232.6 485.71,-232.6 487.55,-232.6"/>
<polygon fill="#000000" stroke="black" points="487.29,-236.1 497.29,-232.6 487.29,-229.1 487.29,-236.1"/>
</g>
<!-- applications_core_tests_factories -->
<g id="node12" class="node">
<title>applications_core_tests_factories</title><style>.edge>path:hover{stroke-width:8}</style>
<ellipse fill="#c24747" stroke="black" cx="285" cy="-339.31" rx="37.3" ry="31.11"/>
<text text-anchor="middle" x="285" y="-347.81" font-family="Helvetica,sans-Serif" font-size="10.00" fill="#ffffff">core.</text>
<text text-anchor="middle" x="285" y="-335.81" font-family="Helvetica,sans-Serif" font-size="10.00" fill="#ffffff">tests.</text>
<text text-anchor="middle" x="285" y="-323.81" font-family="Helvetica,sans-Serif" font-size="10.00" fill="#ffffff">factories</text>
</g>
<!-- applications_core_tests_e2e_test_animals&#45;&gt;applications_core_tests_factories -->
<g id="edge15" class="edge">
<title>applications_core_tests_e2e_test_animals&#45;&gt;applications_core_tests_factories</title><style>.edge>path:hover{stroke-width:8}</style>
<path fill="none" stroke="black" d="M394.16,-260.03C372.13,-275.82 344.23,-295.84 322.15,-311.67"/>
<polygon fill="#000000" stroke="black" points="320.39,-308.62 314.3,-317.3 324.47,-314.31 320.39,-308.62"/>
</g>
<!-- applications_core_tests_unitary_test_unique_name_mixin -->
<g id="node13" class="node">
<title>applications_core_tests_unitary_test_unique_name_mixin</title><style>.edge>path:hover{stroke-width:8}</style>
<ellipse fill="#995252" stroke="black" cx="275" cy="-232.6" rx="87.68" ry="39.6"/>
<text text-anchor="middle" x="275" y="-247.1" font-family="Helvetica,sans-Serif" font-size="10.00" fill="#ffffff">core.</text>
<text text-anchor="middle" x="275" y="-235.1" font-family="Helvetica,sans-Serif" font-size="10.00" fill="#ffffff">tests.</text>
<text text-anchor="middle" x="275" y="-223.1" font-family="Helvetica,sans-Serif" font-size="10.00" fill="#ffffff">unitary.</text>
<text text-anchor="middle" x="275" y="-211.1" font-family="Helvetica,sans-Serif" font-size="10.00" fill="#ffffff">test_unique_name_mixin</text>
</g>
<!-- applications_core_tests_unitary_test_unique_name_mixin&#45;&gt;applications_core_tests_factories -->
<g id="edge16" class="edge">
<title>applications_core_tests_unitary_test_unique_name_mixin&#45;&gt;applications_core_tests_factories</title><style>.edge>path:hover{stroke-width:8}</style>
<path fill="none" stroke="black" d="M278.72,-272.59C279.47,-280.41 280.26,-288.65 281.01,-296.55"/>
<polygon fill="#000000" stroke="black" points="277.51,-296.67 281.94,-306.29 284.48,-296 277.51,-296.67"/>
</g>
<!-- applications_core_urls -->
<g id="node14" class="node">
<title>applications_core_urls</title><style>.edge>path:hover{stroke-width:8}</style>
<ellipse fill="#995252" stroke="black" cx="90" cy="-57.75" rx="32.17" ry="18"/>
<text text-anchor="middle" x="90" y="-54.25" font-family="Helvetica,sans-Serif" font-size="10.00" fill="#ffffff">core.urls</text>
</g>
<!-- applications_core_urls&#45;&gt;applications_core_controllers -->
<g id="edge1" class="edge">
<title>applications_core_urls&#45;&gt;applications_core_controllers</title><style>.edge>path:hover{stroke-width:8}</style>
<path fill="none" stroke="black" d="M82.97,-75.68C79.79,-83.33 75.93,-92.62 72.25,-101.49"/>
<polygon fill="#000000" stroke="black" points="69.08,-99.99 68.48,-110.56 75.54,-102.67 69.08,-99.99"/>
</g>
<!-- applications_core_urls&#45;&gt;applications_core_controllers_companies_controller -->
<g id="edge2" class="edge">
<title>applications_core_urls&#45;&gt;applications_core_controllers_companies_controller</title><style>.edge>path:hover{stroke-width:8}</style>
<path fill="none" stroke="black" d="M98.5,-75.44C103.21,-85.64 108.59,-99.11 111,-111.75 115.98,-137.86 111.67,-167.39 106.01,-190.6"/>
<polygon fill="#000000" stroke="black" points="102.7,-189.42 103.55,-199.98 109.47,-191.2 102.7,-189.42"/>
</g>
</g>
</svg>
